<svg version="1.2" xmlns="http://www.w3.org/2000/svg" viewBox="0 0 1024 1024" width="1024" height="1024">
	<style>
		.s0 { fill: #00a7aa } 
	</style>
	<path id="Path 0" fill-rule="evenodd" class="s0" d="m383.95 160.02l0.04 145.66-17.08 0.22c-9.39 0.12-18.24 0.28-19.66 0.34-2.22 0.11-2.62 1.14-3.22 14.91l4.19 0.1c2.3 0.06 11.29 0.06 35.77-0.1l-0.32 41.79c-0.18 22.98 0.16 42.27 0.75 42.86 0.59 0.59 52.65 1.22 230.31 1.72l-0.11-6.13c-0.07-3.36-0.07-17.58 0.11-57.04h36.1v-19.33l-6.77-0.01c-3.72 0-12.43-0.44-31.92-1.93l0.03-122.46h22.54l0.65-10.95h-27.07l0.64-29.01 174.51-0.66 0.16 51.58 45.76 0.64 0.64 17.41h-72.18v18.04l12.57-0.08c6.91-0.04 13.58-0.04 14.82 0 1.91 0.07 2.26 1.37 2.26 16.84l-54.79 0.65-0.64 10.95h51.56v77.35h46.4l-0.62 2.9c-0.35 1.59-0.64 5.94-0.66 16.43h-60.59v12.89l18.69 0.65v70.9l-53.5 0.64 0.65 13.54 72.83 0.64-0.64 14.82-18.69 0.65-0.02 29.32c0 16.13-0.44 32.44-1.92 43.16l7.09-0.75c3.9-0.42 24.2-0.92 83.15-1.48l0.64 10.96h-34.16c-18.79 0-34.74 0.29-35.45 0.64-0.71 0.36-17.53 0.65-73.48 0.65l-0.01 4.19c-0.02 4.01 0.24 4.23 6.12 5.16 3.38 0.54 15.13 0.97 46.1 0.96l-0.64 42.54h-81.21l-0.01 9.67 24.82 1.03c13.65 0.58 40.48 0.94 94.42 0.57l0.43 5c0.23 2.75 0.09 8.04-1.07 18.53h-65.74l-0.02 17.41 28.37-1.29 0.01 81.85h48.98v19.34h-59.3v3.87c0 3.65 0.29 3.86 10.32 3.86v51.57h-47.7l0.65 12.24 48.34 0.65v16.11l-174.67-0.9v-34.83l35.45 0.28v-10.31l-30.29-0.65v-32.22l71.54-0.65v-11.6h-69.61v-6.44h-30.94l0.65-13.54 30.29-0.64v-86.37h39.96v-16.76l-19.01 0.01c-10.46 0.01-21.8-0.43-31.37-1.94l0.75-38.51 4.51-1.21c2.57-0.68 15.21-0.85 54.14 0.4v-12.89h-48.98v-48.34l-33.19-0.97c-18.26-0.53-71.63-0.97-204-0.96v125.04h-21.91c-20.52 0-21.98 0.16-22.88 2.5-0.53 1.38-0.97 4.14-0.97 9.74l44.47 0.65-0.64 17.04-81.86-0.29-0.01 2.9c-0.01 1.6-0.3 4.21-1.28 8.71h90.24v38.67h-23.2v9.02l18.64 0.65-0.35 29c-0.2 15.95-0.48 29.12-0.62 29.27-0.15 0.15-22.75 0.3-100.17 0.38l-0.01 14.82 20.3 0.96c11.17 0.53 34.09 0.97 81.54 0.98v14.82c0 14.3-0.1 14.85-2.9 15.55-1.59 0.4-40.99 0.55-87.55 0.32-46.55-0.22-84.96-0.69-85.35-1.05-0.38-0.35-0.86-12.1-1.44-51.55l-36.74-0.01 0.64-10.96 34.81-0.68 0.97-8.04c0.54-4.42 0.97-14.85 0.96-38.33h46.41v-14.18h-69.61v-27.07l25.76 1.94 0.66-101.8 24.5 0.43c13.47 0.24 28.4 0.09 41.89-1.11v-9.03l-85.72-0.64-0.65-23.85h68.32v-9.02h-48.98l1.93-58.02-7.09-0.08c-3.9-0.05-17.5-0.19-53.36-0.55l-0.39-5.48c-0.31-4.39 0.06-5.56 1.87-5.89 1.24-0.22 14.56-0.37 56.94-0.24l0.74-21.91 21.27-0.64v-10.32l-41.89-0.64-0.65-14.82h77.35l0.03-10.96-8.08-0.98c-4.43-0.53-17.35-0.96-49.32-0.94l0.97-15.8c0.54-8.69 0.97-22.47 0.97-45.45l22.24-0.44c12.22-0.25 22.31-0.54 22.4-0.65 0.1-0.11 0.39-6.83 1.12-29.66l-45.76 0.46-0.03-62.52 15.5 1.94v-15.47l-16.12-0.65-0.69-27.07-8.68-1.02c-4.77-0.56-16.5-0.97-26.08-0.9-9.57 0.07-19.28 0.09-21.59 0.05-4.07-0.06-4.17-0.2-3.64-4.9 0.31-2.65 1.03-8.17 2.68-19.68l114.08 0.03 0.32-5.26c0.18-2.89 0.03-5.52-0.32-5.84-0.36-0.32-12.97-0.56-28.04-0.54-21.01 0.03-27.42-0.34-27.51-1.58-0.06-0.88-0.06-10.89-0.01-22.23 0.06-11.35 0.1-20.76 0.1-20.93-0.01-0.17 39.15-0.31 174.01-0.34zm104.45 353.2h95.39l0.01-12.25c-33.47-1.5-54.94-1.93-69.29-1.93h-26.11z"/>
	<path id="Shape 1" class="s0" d=""/>
</svg>